<svg width="14" height="14" viewBox="0 0 14 14" fill="none" xmlns="http://www.w3.org/2000/svg">
<path d="M13.7677 12.6757L11.2551 10.1818C13.217 7.67076 13.0104 4.09337 10.756 1.84029C9.56853 0.653563 7.98525 0 6.29871 0C4.61217 0 3.02889 0.653563 1.84143 1.84029C0.653964 3.02703 0 4.60934 0 6.29484C0 7.98035 0.653964 9.56266 1.84143 10.7494C3.02889 11.9361 4.61217 12.5897 6.29871 12.5897C7.69269 12.5897 9.06945 12.1253 10.1709 11.2482L12.6663 13.7764C12.8211 13.9312 13.0104 14 13.217 14C13.4235 14 13.6128 13.914 13.7677 13.7764C14.0774 13.484 14.0774 12.9853 13.7677 12.6757ZM11.0486 6.29484C11.0486 7.56757 10.5495 8.7543 9.65458 9.64865C8.75968 10.543 7.55501 11.0418 6.29871 11.0418C5.04241 11.0418 3.83774 10.543 2.94284 9.64865C2.04794 8.7543 1.54886 7.55037 1.54886 6.29484C1.54886 5.02211 2.04794 3.83538 2.94284 2.94103C3.83774 2.04668 5.04241 1.54791 6.29871 1.54791C7.57222 1.54791 8.75968 2.04668 9.65458 2.94103C10.5495 3.83538 11.0486 5.02211 11.0486 6.29484Z" fill="black"/>
</svg>
